<svg width="274" height="259" viewBox="0 0 274 259" fill="none" xmlns="http://www.w3.org/2000/svg">
<path d="M0 63.3638H274V236.31H0V63.3638Z" fill="#006094"/>
<path d="M256.767 203.731V95.943C247.282 95.943 239.592 88.6622 239.592 79.6807H34.3511C34.3206 88.6192 26.6732 95.8596 17.2325 95.8889V203.732C26.692 203.761 34.3511 211.031 34.3511 219.994H239.591C239.592 211.012 247.281 203.731 256.767 203.731Z" fill="#FFD064"/>
<path d="M239.592 79.6804H217.539C217.539 88.662 225.229 95.9428 234.715 95.9428V203.731C225.23 203.731 217.539 211.012 217.539 219.993H239.592C239.592 211.012 247.281 203.731 256.767 203.731V95.9433C247.281 95.9433 239.592 88.662 239.592 79.6804Z" fill="#FFC250"/>
<path d="M194.496 128.75H221.12C223.404 128.75 225.255 127 225.255 124.841C225.255 122.683 223.404 120.933 221.12 120.933H194.496C192.213 120.933 190.362 122.683 190.362 124.841C190.362 127 192.213 128.75 194.496 128.75Z" fill="#E28424"/>
<path d="M235.297 142.544H180.32C178.036 142.544 176.185 144.294 176.185 146.453C176.185 148.611 178.036 150.361 180.32 150.361H235.296C237.58 150.361 239.431 148.611 239.431 146.453C239.431 144.294 237.58 142.544 235.297 142.544Z" fill="#E28424"/>
<path d="M221.12 164.156H194.496C192.213 164.156 190.362 165.906 190.362 168.065C190.362 170.223 192.213 171.973 194.496 171.973H221.12C223.404 171.973 225.255 170.223 225.255 168.065C225.255 165.906 223.404 164.156 221.12 164.156Z" fill="#E28424"/>
<path d="M52.8799 128.75H79.5039C81.7874 128.75 83.6385 127 83.6385 124.841C83.6385 122.683 81.7874 120.933 79.5039 120.933H52.8799C50.5963 120.933 48.7452 122.683 48.7452 124.841C48.7452 127 50.5963 128.75 52.8799 128.75Z" fill="#E28424"/>
<path d="M93.6802 142.544H38.7036C36.4201 142.544 34.569 144.294 34.569 146.453C34.569 148.611 36.4201 150.361 38.7036 150.361H93.6796C95.9632 150.361 97.8143 148.611 97.8143 146.453C97.8148 144.294 95.9637 142.544 93.6802 142.544Z" fill="#E28424"/>
<path d="M79.5039 164.156H52.8799C50.5963 164.156 48.7452 165.906 48.7452 168.065C48.7452 170.223 50.5963 171.973 52.8799 171.973H79.5039C81.7874 171.973 83.6385 170.223 83.6385 168.065C83.6385 165.906 81.7874 164.156 79.5039 164.156Z" fill="#E28424"/>
<path d="M108.794 200.663C113.154 195.388 118.492 190.148 124.506 186.559C125.672 185.863 126.652 185.426 127.479 185.092C127.462 185.099 128.661 184.745 127.996 184.93C127.435 185.086 128.293 184.845 128.416 184.94C128.231 184.798 127.657 184.828 127.417 184.672C128.142 185.143 126.797 184.154 126.933 184.189C126.118 183.977 127.191 183.665 126.897 184.151C126.693 184.49 126.941 184.295 126.963 184.513C127.073 185.605 126.822 186.667 126.603 187.73C126.156 189.898 125.451 192.324 126.143 194.514C128.613 202.338 139.096 196.325 143.531 194.03C144.813 193.366 146.092 192.657 147.435 192.105C146.689 192.412 148.095 191.923 148.128 191.886C148.601 191.345 148.06 192.252 147.791 191.902C147.794 191.905 147.241 191.201 147.14 191.233C147.326 191.174 147.601 193.714 147.744 194.546C148.063 196.414 148.854 198.161 150.585 199.238C154.001 201.362 158.676 199.791 162.092 198.475C164.871 197.405 167.599 196.182 170.203 194.768C174.817 192.264 170.657 185.507 166.03 188.019C164.051 189.093 161.994 190.094 159.894 190.938C158.316 191.572 156.7 192.04 155.035 192.414C155.507 192.308 154.719 192.447 154.742 192.433C154.058 192.841 154.478 192.12 154.85 192.576C154.996 192.756 155.871 193.664 155.965 193.667C155.899 193.665 155.735 192.423 155.808 193.071C155.402 189.427 154.513 185.587 150.271 184.39C147 183.467 144.012 184.928 141.192 186.338C138.497 187.686 135.495 189.535 132.922 190.331C132.618 190.425 132.242 190.471 131.953 190.595C131.691 190.707 132.4 190.869 131.867 190.608C132.211 190.776 132.527 190.719 132.908 190.931C132.317 190.603 134.05 192.299 134.071 192.307C134.404 192.444 133.994 192.847 134.173 191.958C134.317 191.248 134.432 190.522 134.576 189.809C134.88 188.304 135.22 186.769 135.246 185.23C135.301 181.97 133.931 178.473 130.353 177.425C127.378 176.555 124.25 177.714 121.658 179.063C114.447 182.815 107.977 189.048 102.945 195.136C101.56 196.811 101.249 199.024 102.945 200.663C104.362 202.03 107.421 202.323 108.794 200.663Z" fill="#006094"/>
<path d="M159.071 158.056L137 146.09L114.928 158.056V85.6631H159.071V158.056Z" fill="#FFC2D1"/>
<path d="M137 119.917C130.606 119.917 126.093 111.169 120.527 108.978C114.764 106.71 105.059 109.78 100.71 105.664C96.3622 101.547 99.6053 92.3577 97.2099 86.9004C94.8959 81.6299 85.657 77.3574 85.657 71.3033C85.657 65.2492 94.8965 60.9767 97.2099 55.7061C99.6058 50.2494 96.3628 41.0595 100.71 36.9428C105.059 32.8261 114.764 35.8967 120.527 33.6284C126.093 31.4375 130.606 22.6897 137 22.6897C143.394 22.6897 147.906 31.438 153.473 33.6284C159.236 35.8967 168.941 32.8261 173.289 36.9428C177.638 41.0595 174.394 50.2489 176.79 55.7061C179.104 60.9767 188.343 65.2492 188.343 71.3033C188.343 77.3574 179.103 81.6299 176.79 86.9004C174.394 92.3571 177.637 101.547 173.289 105.664C168.941 109.78 159.236 106.71 153.473 108.978C147.906 111.169 143.394 119.917 137 119.917Z" fill="#EF8DA5"/>
<path d="M176.79 55.7061C174.395 50.2494 177.638 41.06 173.289 36.9428C168.941 32.8261 159.236 35.8967 153.473 33.6284C147.906 31.4375 143.394 22.6897 137 22.6897C134.271 22.6897 131.886 24.2842 129.615 26.2808C147.957 33.8651 160.775 51.1676 160.775 71.3033C160.775 91.4385 147.957 108.741 129.614 116.326C131.885 118.322 134.271 119.917 136.999 119.917C143.393 119.917 147.906 111.169 153.472 108.979C159.235 106.71 168.941 109.781 173.289 105.664C177.637 101.548 174.394 92.3577 176.79 86.901C179.104 81.6304 188.343 77.3579 188.343 71.3038C188.343 65.2492 179.104 60.9767 176.79 55.7061Z" fill="#ED809B"/>
<path d="M137 96.4015C151.64 96.4015 163.508 85.1647 163.508 71.3033C163.508 57.4419 151.64 46.2051 137 46.2051C122.36 46.2051 110.492 57.4419 110.492 71.3033C110.492 85.1647 122.36 96.4015 137 96.4015Z" fill="#FFD064"/>
<path d="M144.518 67.3914C144.518 67.3914 144.517 67.3914 144.516 67.3914L141.133 67.3929L141.131 64.1943C141.13 62.0364 139.279 60.2876 136.996 60.2876C136.996 60.2876 136.995 60.2876 136.994 60.2876C134.711 60.2886 132.86 62.0394 132.861 64.1979L132.863 67.3964L129.479 67.398C127.195 67.399 125.345 69.1497 125.346 71.3082C125.347 73.4662 127.198 75.215 129.481 75.215H129.483L132.866 75.2135L132.868 78.412C132.869 80.57 134.72 82.3188 137.003 82.3188H137.005C139.288 82.3178 141.139 80.567 141.138 78.4085L141.136 75.2099L144.52 75.2084C146.804 75.2074 148.654 73.4566 148.653 71.2981C148.653 69.1401 146.801 67.3914 144.518 67.3914Z" fill="#E28424"/>
</svg>
