<svg width="274" height="259" viewBox="0 0 274 259" fill="none" xmlns="http://www.w3.org/2000/svg">
<g clip-path="url(#clip0_528_0)">
<path d="M194.451 71.0153V55.8395C194.451 26.5978 170.678 1.43685 139.777 0.0614148C106.785 -1.4071 79.5479 23.4427 79.5479 54.3057V71.0153C79.5479 99.1284 74.6057 115.563 72.1124 122.065C71.3691 124.003 72.2601 126.148 74.1856 127.117C82.9921 131.545 106.986 142.873 128.161 146.209H145.838C167.013 142.873 191.007 131.544 199.814 127.117C201.739 126.148 202.63 124.003 201.887 122.065C199.393 115.563 194.451 99.1284 194.451 71.0153Z" fill="#CC7A3B"/>
<path d="M79.5478 54.3061V71.0156C79.5478 99.1277 74.6062 115.562 72.1129 122.064C71.3674 124.008 72.2777 126.157 74.2091 127.127C82.4248 131.254 103.764 141.333 123.741 145.396V62.6608L114.902 54.3061C100.201 40.4096 99.2057 22.8588 100.178 12.6384C87.5751 22.5998 79.5478 37.5621 79.5478 54.3061Z" fill="#A35418"/>
<path d="M159.096 116.969H114.903V171.278H159.096V116.969Z" fill="#E6AF78"/>
<path d="M200.806 156.1L177.278 146.209L145.838 158.742L140.677 166.06C138.927 168.54 135.072 168.54 133.322 166.06L128.161 158.742L97.2021 146.209L73.6739 156.1C63.8576 160.226 57.6449 169.544 57.9425 179.695L60.2645 258.999H214.216L216.538 179.695C216.835 169.543 210.623 160.226 200.806 156.1Z" fill="#FFDC64"/>
<path d="M87.5029 187.983L65.3014 161.751C60.5214 166.495 57.7434 172.886 57.9425 179.695L60.2646 258.999H87.5029V187.983Z" fill="#FFD064"/>
<path d="M186.977 187.983L209.179 161.751C213.959 166.495 216.737 172.886 216.538 179.695L214.216 258.999H186.977V187.983Z" fill="#FFD064"/>
<path d="M114.903 129.101C121.665 132.036 129.154 133.677 136.999 133.677C144.845 133.677 152.335 132.037 159.096 129.101V116.967H114.903V129.101Z" fill="#D29B6E"/>
<path d="M178.858 96.7214C179.998 93.3422 180.64 89.8123 180.737 86.2668C181.389 62.2243 145.767 67.854 116.502 49.6527C114.463 48.3845 111.745 48.7887 110.352 50.6831C105.728 56.9719 100.494 61.944 97.4075 64.6276C95.7689 66.0526 93.6427 66.8377 91.4159 66.8377H88.236C88.2334 66.8377 88.2318 66.8392 88.2291 66.8392C87.7442 66.8478 87.2481 66.8959 86.7435 66.9885C82.4424 67.7756 79.5472 71.6656 79.5472 75.8066V78.8286C79.5472 82.8249 82.2541 86.5951 86.371 87.5026C87.2979 87.7069 88.1996 87.7646 89.0634 87.6999C91.2607 87.5339 93.1793 89.0454 93.5748 91.0952C97.3321 110.559 115.322 125.322 136.999 125.322C155.421 125.322 171.145 114.642 177.768 99.4935C178.088 98.7559 178.795 96.9009 178.858 96.7214Z" fill="#F0C087"/>
<path d="M110.483 83.5475V50.5286C105.825 56.8897 100.52 61.9215 97.4081 64.6279C95.7694 66.0529 93.6433 66.838 91.4165 66.838H88.2366C88.2339 66.838 88.2323 66.8395 88.2296 66.8395C87.7453 66.8481 87.2503 66.8962 86.7467 66.9882C82.4456 67.7738 79.5472 71.6603 79.5472 75.8013V78.8284C79.5472 82.8241 82.2535 86.5938 86.3705 87.5023C87.2974 87.7067 88.1996 87.7649 89.0634 87.6996C91.2607 87.5337 93.1793 89.0452 93.5748 91.0949C97.3321 110.559 115.322 125.322 136.999 125.322C140.004 125.322 142.927 125.012 145.762 124.472C125.628 120.573 110.483 103.732 110.483 83.5475Z" fill="#E6AF78"/>
<path d="M234.225 258.999H39.7739C37.3309 258.999 35.3546 257.129 35.3546 254.822C35.3546 252.515 37.3315 250.645 39.7739 250.645H234.226C236.669 250.645 238.645 252.515 238.645 254.822C238.645 257.129 236.668 258.999 234.225 258.999Z" fill="#C39772"/>
<path d="M105.747 162.32L97.2251 146.209L106.83 138.454C108.796 136.866 111.779 137.207 113.288 139.192L128.161 158.742L118.956 165.267C114.544 168.394 108.213 166.982 105.747 162.32Z" fill="#FFD064"/>
<path d="M168.252 162.32L176.774 146.209L167.169 138.454C165.203 136.866 162.22 137.207 160.711 139.192L145.838 158.742L155.043 165.267C159.455 168.394 165.786 166.982 168.252 162.32Z" fill="#FFD064"/>
<path d="M186.117 250.645H87.8818C83.2019 250.645 79.3332 247.197 79.0582 242.781L75.6786 188.474C75.38 183.675 79.4167 179.629 84.5023 179.629H189.496C194.582 179.629 198.618 183.675 198.32 188.474L194.94 242.781C194.666 247.196 190.797 250.645 186.117 250.645Z" fill="#DBD9DC"/>
<path d="M136.999 227.669C143.101 227.669 148.048 222.993 148.048 217.225C148.048 211.458 143.101 206.782 136.999 206.782C130.898 206.782 125.951 211.458 125.951 217.225C125.951 222.993 130.898 227.669 136.999 227.669Z" fill="white"/>
</g>
<defs>
<clipPath id="clip0_528_0">
<rect width="274" height="259" fill="white"/>
</clipPath>
</defs>
</svg>
