<svg width="50" height="50" viewBox="0 0 50 50" fill="none" xmlns="http://www.w3.org/2000/svg">
<path d="M25.0352 32.0896C29.1215 32.0896 32.4342 28.8796 32.4342 24.9198C32.4342 20.96 29.1215 17.75 25.0352 17.75C20.9489 17.75 17.6362 20.96 17.6362 24.9198C17.6362 28.8796 20.9489 32.0896 25.0352 32.0896Z" fill="#020945"/>
<path d="M36.4875 25.3198C36.4875 31.4482 31.3601 36.4155 25.0353 36.4155C18.7105 36.4155 13.5831 31.4482 13.5831 25.3198C13.5831 24.2216 13.7489 23.1607 14.0558 22.1587H10.6716V37.7224C10.6716 38.5285 11.3305 39.1868 12.1361 39.1868H37.7929C38.599 39.1868 39.2583 38.5285 39.2583 37.7224V22.1587H36.0149C36.3212 23.1607 36.4875 24.2216 36.4875 25.3198Z" fill="#020945"/>
<path d="M33.4179 17.9589H37.5821C38.4946 17.9589 39.2404 17.2131 39.2404 16.3005V12.3302C39.2404 11.4172 38.4946 10.6714 37.5821 10.6714H33.4179C32.5048 10.6714 31.759 11.4172 31.759 12.3302V16.3005C31.7585 17.2126 32.5048 17.9589 33.4179 17.9589Z" fill="#020945"/>
<path d="M25 0C11.1928 0 0 11.1928 0 25C0 38.8072 11.1928 50 25 50C38.8072 50 50 38.8072 50 25C50 11.1928 38.8072 0 25 0ZM38.6931 43.4225H11.3074C8.70537 43.4225 6.578 41.4967 6.578 38.6941V11.3069C6.578 8.50332 8.70537 6.578 11.3074 6.578H38.6931C41.2946 6.578 43.4225 8.50332 43.4225 11.3069V38.6941C43.4225 41.4967 41.2941 43.4225 38.6931 43.4225Z" fill="#020945"/>
</svg>
