<svg width="580" height="500" viewBox="0 0 580 500" fill="none" xmlns="http://www.w3.org/2000/svg">
<g clip-path="url(#clip0_59_79)">
<path opacity="0.8" d="M0 158.108C12.0928 167.145 39.5557 227.009 34.6314 223.763C35.8114 221.507 37.73 219.736 40.0593 218.751C42.3886 217.766 44.9841 217.629 47.4023 218.364C56.266 220.859 56.8957 210.648 56.8957 210.648C56.8957 210.648 45.3518 189.443 42.4618 176.296C39.5719 163.149 24.2501 125.73 24.2501 125.73C22.9262 124.539 13.7073 131.178 12.4479 144.602C11.6245 152.432 6.0383 155.172 0 158.108Z" fill="#3F50B3"/>
<path opacity="0.8" d="M111.951 182.445C111.951 182.445 134.037 255.016 129.242 257.104C124.447 259.192 151.846 264.607 156.576 255.163C156.495 255.163 130.921 170.962 136.588 165.106" fill="#3F50B3"/>
<path d="M111.983 182.413C111.983 182.413 126.417 160.767 139.817 154.683C139.85 154.716 133.117 187.208 111.983 182.413Z" fill="#828FE6"/>
<path opacity="0.8" d="M137.202 179.362C137.202 179.362 140.431 159.789 153.686 154.895C153.686 154.895 154.526 171.973 150.118 174.192C145.71 176.41 145.178 178.253 137.202 179.362Z" fill="#1E2D86"/>
<path opacity="0.8" d="M127.24 246.942C127.24 246.942 101.618 224.807 95.9186 214.693C95.9186 214.693 98.97 253.058 127.24 246.942Z" fill="#1E2D86"/>
<path opacity="0.8" d="M126.627 246.762C126.627 246.762 96.6935 272.159 95.4988 272.861C94.304 273.562 117.069 272.991 127.014 257.528C127.014 257.528 131.777 257.316 126.627 246.762Z" fill="#3F50B3"/>
<path d="M129.71 246.942C129.71 246.942 102.102 248.018 95.9186 254.673C95.9186 254.673 88.9116 259.045 77.5776 250.302C77.5776 250.302 86.9903 278.961 118.102 259.599C118.102 259.599 129.436 250.791 129.71 246.942Z" fill="#1E2D86"/>
<path opacity="0.8" d="M134.037 275.389C134.037 275.389 143.531 359.687 146.001 361.367C146.001 361.367 146.954 357.192 154.38 357.746C161.807 358.301 171.688 352.331 171.688 352.331C172.172 356.702 169.525 319.496 163.777 296.366C162.501 291.211 159.062 286.823 159.03 281.522C158.974 277.729 159.845 273.981 161.565 270.61" fill="#3F50B3"/>
<path d="M129.823 261.867C129.823 261.867 122.3 270.022 134.037 275.389C145.775 280.756 161.565 270.3 161.565 270.61C161.565 270.92 166.812 257.56 155.268 257.56" fill="#828FE6"/>
<path opacity="0.8" d="M159.321 371.497C159.321 370.861 156.092 400.858 164.487 410.857" stroke="#3F50B3" stroke-width="4" stroke-miterlimit="10"/>
<path d="M145.856 362.183C145.856 362.183 140.399 370.502 150.99 371.709C161.581 372.916 174.788 365.299 174.998 365.348C175.208 365.396 181.246 355.675 171.656 352.298" fill="#828FE6"/>
<path opacity="0.8" d="M158.772 401.69C158.772 401.69 161.387 378.299 102.264 369.964C102.264 369.964 105.154 381.219 114.631 381.382C124.108 381.545 131.955 377.222 135.523 385.965C135.523 385.965 139.511 391.234 144.322 383.747" fill="#3F50B3"/>
<path opacity="0.8" d="M76.0116 327.668C76.0116 327.668 115.035 388.689 107.059 419.013C107.059 419.013 117.634 412.602 124.819 413.141C126.063 413.202 127.297 412.881 128.358 412.22C129.418 411.559 130.256 410.589 130.76 409.438C131.685 407.7 132.236 405.784 132.375 403.816C132.514 401.848 132.239 399.873 131.567 398.02C126.724 383.894 110.046 335.856 100.052 315.76" fill="#3F50B3"/>
<path opacity="0.8" d="M122.51 374.058C122.51 374.058 118.861 356.327 114.663 348.628C110.465 340.929 138.59 380.093 139.559 380.093" fill="#1E2D86"/>
<path opacity="0.8" d="M23.7012 124.784C23.7012 124.784 14.1432 114.393 12.3995 89.5507C10.785 66.8286 8.81531 65.2301 8.81531 65.2301C8.81531 65.2301 18.5024 76.6482 20.3591 82.8466C22.2158 89.0451 18.2926 44.808 19.681 33.0636C19.7295 33.0636 52.9724 64.5287 23.7012 124.784Z" fill="#3F50B3"/>
<path opacity="0.8" d="M23.7012 124.702C23.7012 124.702 44.8675 71.4286 53.2469 55.0517C53.2469 54.9864 56.4113 110.299 23.7012 124.702Z" fill="#1E2D86"/>
<path opacity="0.8" d="M58.1874 105.683C58.1874 105.683 34.357 130.15 36.0684 155.319L58.1874 105.683Z" fill="#1E2D86"/>
<path d="M37.0048 220.664C37.3115 220.876 43.0754 230.548 40.0885 232.636C37.1016 234.724 57.6868 234.121 60.4961 224.823C62.3205 218.771 60.496 218.967 56.4759 211.301" fill="#828FE6"/>
<path opacity="0.8" d="M43.1884 234.202C41.6521 235.299 39.8423 235.938 37.9644 236.048C36.0865 236.157 34.2158 235.733 32.5648 234.822C27.0108 231.56 43.0753 234.61 49.4688 267.723C55.8623 300.835 71.7331 317.489 71.7331 317.489C71.7331 317.489 88.8308 303.951 94.3363 304.163C94.3363 304.163 92.7218 290.363 88.5725 280.641C83.3414 268.652 61.2064 225.182 61.3679 224.823" fill="#3F50B3"/>
<path d="M76.4636 275.226C76.1892 275.813 53.3922 227.319 72.3466 188.774C72.3466 188.774 72.9601 247.496 76.4636 243.125C76.4636 243.125 77.497 223.958 91.3172 190.65L90.0741 223.746C86.9903 256.467 87.9267 250.775 76.4636 275.226Z" fill="#1E2D86"/>
<path opacity="0.8" d="M415.292 325.749L401.468 322.23L391.623 361.711L405.447 365.229L415.292 325.749Z" fill="#3F50B3"/>
<path d="M71.7331 317.489C71.7331 317.489 66.4698 327.276 77.0933 327.798C87.7169 328.32 98.8409 314.374 98.8409 314.374C98.8409 314.374 103.055 304.782 94.401 304.163" fill="#828FE6"/>
<path opacity="0.8" d="M390.375 226.601C390.375 226.601 393.265 259.11 390.585 269.288C387.904 279.467 386.048 303.951 389.132 310.671C392.215 317.391 413.042 314.357 413.462 312.188C413.882 310.019 408.312 263.253 424.376 222.474C424.856 221.867 425.185 221.153 425.337 220.392C425.49 219.631 425.46 218.844 425.252 218.097C425.044 217.35 424.663 216.663 424.14 216.094C423.617 215.525 422.968 215.089 422.245 214.824" fill="#3F50B3"/>
<path opacity="0.8" d="M104.33 387.319C105.008 386.879 71.6362 356.229 54.1832 362.607C54.1832 362.607 62.0136 365.527 71.9429 379.539C81.8722 393.55 88.5563 397.596 104.33 387.319Z" fill="#1E2D86"/>
<path opacity="0.8" d="M104.33 388.151C103.949 391.746 102.921 395.239 101.295 398.46C99.3855 401.975 96.4539 404.812 92.8965 406.589C89.3391 408.365 85.3274 408.995 81.4041 408.394C77.3839 407.823 72.6534 407.97 69.828 410.775C69.828 410.775 68.6009 410.221 70.4576 406.469C73.1652 401.31 77.7498 397.415 83.2446 395.605L104.33 388.151Z" fill="#3F50B3"/>
<path opacity="0.8" d="M403.775 112.583C404.001 111.359 437.987 137.164 437.987 137.164C437.987 137.164 415.513 200.258 421.696 213.584C421.696 213.584 410.572 218.38 405.826 220.239C401.079 222.099 390.988 219.407 390.988 219.407C390.988 219.407 393.055 186.067 399.19 163.948C401.875 153.984 403.062 143.668 402.71 133.347C402.383 126.407 402.74 119.451 403.775 112.583Z" fill="#3F50B3"/>
<path d="M390.972 219.31C390.972 219.31 388.308 225.41 394.492 225.541C400.288 225.671 404.082 220.647 412.413 222.849C413.878 223.241 415.42 223.241 416.885 222.849C419.097 222.229 421.922 221.006 422.245 218.674C422.81 214.791 419.985 214.432 419.985 214.432" fill="#828FE6"/>
<path d="M393.329 276.058C393.329 276.058 396.203 225.247 376.829 201.709C376.829 201.709 368.998 230.451 374.988 237.954C374.988 237.954 357.455 212.752 360.345 204.629C363.235 196.506 349.366 243.777 393.329 276.058Z" fill="#1E2D86"/>
<path d="M389.131 310.655C389.131 310.655 380.655 314.798 380.268 316.233C379.105 320.654 382.689 326.346 387.485 324.976C406.6 319.479 411.912 328.712 415.932 325.808C423.876 320.066 415.642 315.026 414.076 312.889" fill="#828FE6"/>
<g opacity="0.8">
<path opacity="0.8" d="M493.284 4.43677C496.787 4.48644 500.136 5.90057 502.632 8.38419C503.968 9.75826 505.026 11.3815 505.748 13.1635C506.33 14.5337 506.927 15.7733 507.621 17.1109C508.333 18.4369 509.126 19.7171 509.995 20.9441C510.82 22.2031 511.401 23.6091 511.706 25.0873C512.439 28.4278 512.322 31.9015 511.367 35.1842L510.495 35.6083C508.809 34.8783 507.258 33.8633 505.91 32.6069C504.684 31.5018 503.6 30.247 502.681 28.8716C501.83 27.5312 501.248 26.0347 500.969 24.4674C500.711 22.8363 500.517 21.2051 500.211 19.574C499.904 17.9428 499.629 16.3116 499.419 14.6805C499.397 13.4724 499.139 12.2807 498.661 11.1735C497.473 8.63355 495.486 6.56281 493.01 5.28498L493.284 4.43677Z" fill="#1E2D86"/>
</g>
<path opacity="0.8" d="M466.871 89.6322C466.241 88.5883 459.428 55.9488 465.805 41.5782C472.182 27.2077 474.055 21.7922 474.055 21.7922C474.055 21.7922 474.846 68.3945 466.612 89.0124" fill="#1E2D86"/>
<path opacity="0.8" d="M481.272 153.411C481.272 153.411 471.795 201.367 465.983 209.213C460.171 217.059 456.909 265.439 456.909 265.439L482.887 271.262C482.887 271.262 499.032 150.556 510.511 156.314" fill="#3F50B3"/>
<path opacity="0.8" d="M516.033 125.289C516.033 125.289 526.753 112.24 534.374 100.3C541.994 88.3599 560.206 75.3107 560.206 75.3107C560.206 75.3107 550.729 105.128 541.655 109.043C532.582 112.958 530.935 118.21 530.935 118.21C530.935 118.21 566.454 112.175 580 125.502C580 125.502 554.442 141.536 535.262 125.077C535.262 125.077 517.131 124.246 520.634 129.449C524.138 134.652 528.255 121.962 549.695 148.403C549.695 148.403 520.231 154.928 518.374 136.12C518.374 136.12 516.517 134.032 511.561 137.752" fill="#3F50B3"/>
<g opacity="0.8">
<path d="M470.972 196.294C470.972 196.294 467.048 156.526 440.667 138.208C440.667 138.208 413.462 121.13 397.802 136.74C397.802 136.74 437.648 139.839 441.184 138.796" fill="#1E2D86"/>
<path d="M470.972 196.294C470.972 196.294 467.048 156.526 440.667 138.208C440.667 138.208 413.462 121.13 397.802 136.74C397.802 136.74 437.648 139.839 441.184 138.796" stroke="#1E2D86" stroke-miterlimit="10"/>
</g>
<path opacity="0.8" d="M443.073 125.502C443.073 125.779 406.94 109.19 400.336 83.0913C400.336 83.0913 418.096 94.069 421.083 94.7541C424.07 95.4392 440.603 106.482 443.073 125.502Z" fill="#3F50B3"/>
<path opacity="0.8" d="M456.118 281.049C456.118 281.049 424.377 391.006 430.157 397.449C435.936 403.892 449.111 428.278 449.111 428.278C449.111 428.278 468.485 281.473 482.305 283.349" fill="#3F50B3"/>
<path opacity="0.8" d="M449.111 145.353C448.707 145.761 441.7 76.0773 449.256 56.6501L453.244 91.0677C453.244 91.0677 461.139 133.282 449.111 145.353Z" fill="#3F50B3"/>
<path opacity="0.8" d="M463.335 165.057C460.364 167.178 456.877 119.939 464.368 105.096C471.262 91.557 482.015 52.5396 482.709 53.241C492.203 62.4571 474.394 156.755 462.996 165.628" fill="#1E2D86"/>
<path d="M456.941 265.439C457.975 265.635 444.574 271.474 456.118 281.049C467.662 290.624 483.565 283.969 483.565 283.969C483.565 283.969 491.815 277.934 482.951 271.262" fill="#828FE6"/>
<path opacity="0.8" d="M534.132 248.018C534.132 248.018 518.374 251.558 510.479 248.801C502.584 246.044 505.038 258.425 505.038 258.425C505.038 258.425 497.547 329.25 494.544 332.855C491.541 336.46 511.851 340.195 511.851 340.195C511.851 340.195 520.15 346.899 521.845 337.732C523.54 328.565 527.867 293.413 525.769 293.348C523.67 293.283 528.287 248.54 534.132 248.018Z" fill="#3F50B3"/>
<path d="M457.91 347.372C457.91 347.372 485.567 251.525 509.494 251.884C509.494 251.884 505.296 277.983 495.399 277.036C495.399 277.036 513.062 259.42 528.206 266.597C528.206 266.597 516.291 293.723 495.205 296.268C474.12 298.812 457.377 353.146 457.377 353.146" fill="#1E2D86"/>
<path opacity="0.8" d="M504.102 240.335C504.102 240.335 506.879 208.528 510.059 200.209C513.24 191.89 506.83 167.781 506.83 167.781C506.83 167.781 511.254 144.374 546.031 152.954C546.031 152.954 540.993 176.997 541.187 187.062C541.381 197.126 540.751 208.087 540.751 208.087L535.617 248.165C535.617 248.165 506.717 244.381 504.618 240.678" fill="#3F50B3"/>
<path d="M493.898 334.6C493.898 334.6 481.304 344.599 493.639 351.727C505.974 358.855 519.133 353.701 519.133 353.701C519.133 353.701 526.075 344.371 519.956 341.239" fill="#828FE6"/>
<path opacity="0.8" d="M492.8 351.858C492.8 351.858 489.054 368.43 491.185 377.435C493.316 386.439 486.342 407.089 486.342 407.089C486.342 407.089 479.432 430.659 481.369 431.899C483.306 433.139 500.743 434.313 500.743 433.661C500.743 433.008 505.151 412.358 506.216 399.684C507.282 387.009 518.293 353.62 518.293 353.62" fill="#3F50B3"/>
<path d="M415.432 328.597C415.432 328.597 398.673 369.376 405.535 389.407C407.2 394.437 409.308 399.306 411.832 403.957C413.445 406.854 416.032 409.072 419.124 410.209C422.215 411.346 425.608 411.327 428.687 410.155C433.272 408.426 437.696 405.963 437.422 402.978C437.422 402.978 418.048 384.432 409.7 395.736L409.491 399.374C409.491 399.374 426.863 387.597 432.497 376.766C438.132 365.935 443.379 354.973 443.379 354.973C443.379 354.973 432.255 355.12 427.234 361.498C422.213 367.876 406.73 390.223 406.245 392.147C405.761 394.072 434.596 361.955 432.32 340.391C428.708 346.643 423.699 351.955 417.692 355.903C408.522 361.433 404.114 372.459 404.114 372.459" fill="#1E2D86"/>
<path opacity="0.8" d="M507.67 390.419C507.783 391.169 551.714 319.088 567.407 319.789C567.407 319.789 554.2 360.422 544.803 365.119C535.407 369.817 506.491 382.263 507.67 390.419Z" fill="#3F50B3"/>
<path opacity="0.8" d="M540.896 34.1565C520.02 72.1952 517.825 138.274 510.672 137.996C503.52 137.719 496.384 145.206 487.31 134.946C478.237 124.686 519.262 9.72168 519.262 9.72168" fill="#3F50B3"/>
<path d="M519.811 10.3415C519.811 10.3415 515.887 0.554557 524.654 -3.84944e-05C533.421 -0.554634 549.938 24.7121 549.421 27.3545C549.127 29.5093 548.017 31.4648 546.324 32.8095C544.632 34.1541 542.489 34.7832 540.347 34.5643C533.76 34.287 519.875 9.31389 519.875 9.31389" fill="#828FE6"/>
<path d="M487.311 134.946C487.311 134.946 476.526 135.696 476.122 139.839C475.718 143.983 471.989 149.202 481.272 153.378C490.556 157.554 510.737 155.009 510.737 155.009C510.737 155.009 522.152 144.178 510.737 137.931" fill="#828FE6"/>
<path d="M238.594 413.418C238.594 389.114 221.108 369.377 199.587 369.377C182.376 369.377 167.781 381.969 162.598 399.439C162.338 400.361 161.858 401.204 161.202 401.897C160.545 402.589 159.731 403.109 158.831 403.411C157.93 403.713 156.97 403.789 156.034 403.631C155.098 403.473 154.215 403.087 153.46 402.505L153.056 402.196C150.26 400.009 147.064 398.4 143.652 397.463C140.24 396.525 136.678 396.276 133.17 396.731C129.663 397.185 126.278 398.334 123.211 400.111C120.143 401.889 117.452 404.26 115.293 407.089C110.929 412.801 108.987 420.029 109.896 427.186C110.804 434.343 114.487 440.843 120.136 445.258L156.899 473.95C159.695 476.137 162.891 477.746 166.303 478.683C169.716 479.621 173.278 479.87 176.785 479.415C180.293 478.961 183.677 477.812 186.745 476.035C189.812 474.257 192.503 471.886 194.663 469.057C196.446 466.732 197.837 464.125 198.78 461.342C199.155 460.281 199.819 459.348 200.696 458.653C201.573 457.957 202.627 457.526 203.736 457.41C223.304 455.045 238.594 436.254 238.594 413.418Z" fill="url(#paint0_linear_59_79)"/>
<path opacity="0.05" d="M190.788 472.678C177.387 485.727 161.274 480.834 148.423 467.279L118.457 444.133C118.197 443.937 117.954 443.719 117.731 443.48C107.462 432.307 107.139 415.343 118.054 404.74C123.358 399.601 130.465 396.799 137.813 396.952C145.161 397.105 152.148 400.2 157.238 405.556L191.401 441.441C193.396 443.53 194.962 445.997 196.011 448.699C197.06 451.401 197.571 454.286 197.514 457.188C197.457 460.09 196.833 462.952 195.679 465.611C194.525 468.269 192.863 470.67 190.788 472.678Z" fill="white"/>
<path d="M160.838 154.063C162.146 134.13 177.21 118.178 197.004 113.398C194.238 105.02 188.854 97.7759 181.662 92.7546C174.471 87.7334 165.86 85.2067 157.125 85.5545C138.332 86.0601 122.219 99.5498 118.974 117.509C114.76 140.851 132.358 162.023 156.027 163.589C157.796 163.703 159.57 163.703 161.339 163.589C160.81 160.444 160.642 157.247 160.838 154.063Z" fill="url(#paint1_linear_59_79)"/>
<path d="M322.889 44.9747C330.44 48.0365 336.477 54.0032 339.673 61.562C342.869 69.1209 342.961 77.6529 339.931 85.2809L324.096 125.138L267.234 102.08L283.075 62.2069C286.104 54.5962 291.995 48.5087 299.458 45.2786C306.921 42.0485 315.347 41.9392 322.889 44.9747Z" fill="url(#paint2_linear_59_79)"/>
<path d="M212.761 266.793H299.945C330.249 266.793 359.311 278.955 380.739 300.604C402.167 322.252 414.205 351.614 414.205 382.23V417.251C414.205 435.114 407.181 452.245 394.68 464.875C382.178 477.506 365.222 484.602 347.541 484.602H289.29C266.771 484.602 245.174 475.564 229.251 459.477C213.328 443.389 204.382 421.57 204.382 398.819V275.259C204.382 273.013 205.265 270.86 206.836 269.272C208.408 267.685 210.539 266.793 212.761 266.793Z" fill="url(#paint3_radial_59_79)"/>
<path d="M407.618 407.301C382.464 388.526 357.116 394.007 326.892 418.311C296.668 442.616 278.456 489.332 301.06 493.687C324.147 498.14 310.424 487.929 375.327 476.756C414.205 470.068 419.662 416.305 407.618 407.301Z" fill="url(#paint4_linear_59_79)"/>
<path d="M219.123 366.457L191.514 362.721C185.791 361.955 179.973 362.382 174.419 363.975C168.866 365.569 163.694 368.295 159.224 371.986L123.704 401.347L159.547 400.793C162.986 400.739 166.394 401.451 169.53 402.877C172.667 404.304 175.454 406.41 177.694 409.046L219.123 366.457Z" fill="#006094"/>
<path d="M256.224 382.361L218.977 366.506L177.549 408.981L200.426 439.598L256.224 382.361Z" fill="#00527F"/>
<path d="M273.564 383.111L256.014 382.458L200.426 439.647L220.011 441.768L238.642 443.79L273.564 383.111Z" fill="#00527F"/>
<path d="M327.134 442.355C255.482 427.315 256.676 433.905 239.239 443.594C239.188 443.604 239.135 443.599 239.087 443.58C239.038 443.56 238.996 443.527 238.966 443.484C238.935 443.441 238.917 443.391 238.914 443.338C238.911 443.285 238.923 443.233 238.949 443.187L273.467 383.193C273.495 383.15 273.534 383.116 273.579 383.093C273.625 383.07 273.675 383.059 273.726 383.062C273.726 383.062 348.833 389.146 348.736 389.326C348.639 389.505 327.279 442.387 327.134 442.355Z" fill="#006094"/>
<path d="M215.102 350.374C213.048 350.394 211.004 350.668 209.016 351.189V283.659H208.112C197.492 283.659 187.308 287.921 179.799 295.507C172.29 303.094 168.072 313.383 168.072 324.112V353.065C168.074 359.201 170.082 365.164 173.784 370.028C177.486 374.892 182.675 378.385 188.544 379.963C188.754 396.046 204.14 419.192 215.248 408.785C224.874 399.784 233.762 390.009 241.823 379.555C251.51 367.354 229.811 350.341 215.102 350.374Z" fill="url(#paint5_linear_59_79)"/>
<path d="M406.665 328.222C384.207 256.451 368.256 232.914 314.121 232.914V335.677L312.506 343.637C310.25 354.587 304.594 364.525 296.361 372.003C282.008 376.358 271.045 387.026 273.758 403.631C274.879 410.027 277.907 415.924 282.437 420.533C286.967 425.142 292.783 428.243 299.106 429.42C315.251 432.584 326.553 429.566 330.863 415.065L334.238 407.578C338.099 407.523 341.9 406.603 345.368 404.886C348.835 403.168 351.882 400.695 354.29 397.645L357.519 393.599L369.693 378.201C372.922 370.192 387.759 361.547 403.775 361.547H412.219L406.665 328.222Z" fill="url(#paint6_linear_59_79)"/>
<path d="M359.925 194.467C371.227 246.974 310.811 302.988 250.267 304.195C185.847 305.484 138.59 256.337 147.486 193.945C156.189 132.907 187.849 88.0665 250.267 84.6574C310.747 81.4766 347.202 135.223 359.925 194.467Z" fill="url(#paint7_radial_59_79)"/>
<path opacity="0.9" d="M223.643 242.146C216.798 261.263 210.905 270.169 190.126 265.602C179.244 263.221 169.912 240.792 176.031 216.537C182.311 191.661 198.634 175.758 216.023 180.309C240.951 186.85 232.798 216.635 223.643 242.146Z" fill="black"/>
<path opacity="0.9" d="M327.134 175.268C341.164 195.446 345.879 220.142 333.802 228.02C320.692 236.567 293.439 226.911 282.67 215.395C267.041 198.708 265.863 173.278 276.002 162.643C287.352 150.703 313.298 155.515 327.134 175.268Z" fill="black"/>
<path d="M206.126 227.156C215.462 227.156 223.03 219.509 223.03 210.077C223.03 200.645 215.462 192.999 206.126 192.999C196.79 192.999 189.222 200.645 189.222 210.077C189.222 219.509 196.79 227.156 206.126 227.156Z" fill="black" stroke="#FBFBFB" stroke-width="4" stroke-miterlimit="10"/>
<path d="M208.192 208.414C210.546 208.414 212.455 206.486 212.455 204.107C212.455 201.729 210.546 199.801 208.192 199.801C205.838 199.801 203.93 201.729 203.93 204.107C203.93 206.486 205.838 208.414 208.192 208.414Z" fill="white"/>
<path d="M300.591 203.699C309.927 203.699 317.495 196.053 317.495 186.621C317.495 177.189 309.927 169.543 300.591 169.543C291.255 169.543 283.687 177.189 283.687 186.621C283.687 196.053 291.255 203.699 300.591 203.699Z" fill="black" stroke="#FBFBFB" stroke-width="4" stroke-miterlimit="10"/>
<path d="M299.154 186.621C301.508 186.621 303.417 184.693 303.417 182.315C303.417 179.937 301.508 178.009 299.154 178.009C296.8 178.009 294.892 179.937 294.892 182.315C294.892 184.693 296.8 186.621 299.154 186.621Z" fill="white"/>
<path d="M305.968 283.936L304.353 285.567C296.652 293.527 286.585 298.722 275.688 300.359C264.791 301.997 253.663 299.987 244.002 294.637L241.984 293.528C237.798 291.203 234.2 287.933 231.472 283.971C228.745 280.01 226.96 275.465 226.259 270.691L222.658 246.305C221.383 237.64 222.109 228.795 224.782 220.461C227.454 212.127 231.999 204.531 238.061 198.268L240.822 195.413C245.669 190.397 252.01 187.124 258.873 186.093C265.736 185.062 272.745 186.33 278.827 189.704L279.748 190.21C288.13 194.856 295.336 201.394 300.806 209.317C306.275 217.239 309.859 226.33 311.279 235.882L314.508 257.381C315.217 262.173 314.815 267.066 313.333 271.675C311.851 276.283 309.329 280.48 305.968 283.936Z" fill="url(#paint8_radial_59_79)"/>
<path d="M269.447 264.313L242.856 252.602C237.786 250.383 238.012 242.603 243.276 241.184L264.878 238.508C266.471 238.31 268.027 237.876 269.496 237.22L287.062 229.292C292.26 227.89 296.361 234.463 293.084 238.949L275.889 262.552C275.18 263.55 274.152 264.27 272.979 264.591C271.805 264.912 270.557 264.814 269.447 264.313Z" fill="black"/>
<path opacity="0.1" d="M343.258 435.493L304.639 450.097C291.629 455.017 285.029 469.661 289.899 482.806L290.153 483.493C295.023 496.638 309.518 503.306 322.529 498.386L361.148 483.783C374.158 478.863 380.758 464.218 375.888 451.074L375.634 450.386C370.764 437.241 356.269 430.573 343.258 435.493Z" fill="white"/>
<path d="M272.353 263.074C272.353 263.074 258.953 294.343 239.11 269.745" stroke="black" stroke-width="2" stroke-miterlimit="10" stroke-linecap="round"/>
<path d="M273.709 263.498C273.709 263.498 300.333 283.414 301.947 253.173" stroke="#020202" stroke-width="2" stroke-miterlimit="10" stroke-linecap="round"/>
</g>
<defs>
<linearGradient id="paint0_linear_59_79" x1="109.658" y1="424.461" x2="238.594" y2="424.461" gradientUnits="userSpaceOnUse">
<stop/>
<stop offset="0.26" stop-color="#080808"/>
<stop offset="0.66" stop-color="#1F1F1F"/>
<stop offset="1" stop-color="#363636"/>
</linearGradient>
<linearGradient id="paint1_linear_59_79" x1="164.245" y1="128.111" x2="127.663" y2="105.644" gradientUnits="userSpaceOnUse">
<stop/>
<stop offset="0.36" stop-color="#151515"/>
<stop offset="1" stop-color="#363636"/>
</linearGradient>
<linearGradient id="paint2_linear_59_79" x1="29563.2" y1="10311.9" x2="31127.4" y2="8021.09" gradientUnits="userSpaceOnUse">
<stop/>
<stop offset="0.26" stop-color="#080808"/>
<stop offset="0.66" stop-color="#1F1F1F"/>
<stop offset="1" stop-color="#363636"/>
</linearGradient>
<radialGradient id="paint3_radial_59_79" cx="0" cy="0" r="1" gradientUnits="userSpaceOnUse" gradientTransform="translate(309.293 375.689) scale(106.365 107.461)">
<stop offset="0.45" stop-color="#FCFCFC"/>
<stop offset="0.75" stop-color="#FAFAFA"/>
<stop offset="0.86" stop-color="#F4F3F3"/>
<stop offset="0.94" stop-color="#E8E8E8"/>
<stop offset="1" stop-color="#D9D8D8"/>
</radialGradient>
<linearGradient id="paint4_linear_59_79" x1="58237.3" y1="34800.7" x2="67509.4" y2="34800.7" gradientUnits="userSpaceOnUse">
<stop/>
<stop offset="0.26" stop-color="#080808"/>
<stop offset="0.66" stop-color="#1F1F1F"/>
<stop offset="1" stop-color="#363636"/>
</linearGradient>
<linearGradient id="paint5_linear_59_79" x1="224.757" y1="346.997" x2="175.078" y2="348.451" gradientUnits="userSpaceOnUse">
<stop/>
<stop offset="0.26" stop-color="#050505"/>
<stop offset="0.55" stop-color="#121212"/>
<stop offset="0.85" stop-color="#282828"/>
<stop offset="1" stop-color="#363636"/>
</linearGradient>
<linearGradient id="paint6_linear_59_79" x1="64528.2" y1="55363.8" x2="76467.3" y2="55363.8" gradientUnits="userSpaceOnUse">
<stop/>
<stop offset="0.26" stop-color="#080808"/>
<stop offset="0.66" stop-color="#1F1F1F"/>
<stop offset="1" stop-color="#363636"/>
</linearGradient>
<radialGradient id="paint7_radial_59_79" cx="0" cy="0" r="1" gradientUnits="userSpaceOnUse" gradientTransform="translate(253.851 194.402) scale(108.076 109.19)">
<stop offset="0.5" stop-color="#F2F2F2"/>
<stop offset="0.8" stop-color="#F0F0F0"/>
<stop offset="0.9" stop-color="#E9E9E9"/>
<stop offset="0.98" stop-color="#DEDEDE"/>
<stop offset="1" stop-color="#D8D8D8"/>
</radialGradient>
<radialGradient id="paint8_radial_59_79" cx="0" cy="0" r="1" gradientUnits="userSpaceOnUse" gradientTransform="translate(268.43 243.369) scale(51.9552 52.4908)">
<stop offset="0.51" stop-color="#FCFCFC"/>
<stop offset="0.79" stop-color="#FAFAFA"/>
<stop offset="0.89" stop-color="#F3F3F3"/>
<stop offset="0.92" stop-color="#EFEFEF"/>
</radialGradient>
<clipPath id="clip0_59_79">
<rect width="580" height="500" fill="white"/>
</clipPath>
</defs>
</svg>
