<svg width="297" height="278" viewBox="0 0 297 278" fill="none" xmlns="http://www.w3.org/2000/svg">
<path d="M136.746 77.5141C129.101 77.5141 122.406 73.797 118.553 68.1973C117.093 66.0765 114.666 64.7343 112.01 64.472V109.27H63.9049C64.2611 106.887 65.6701 104.727 67.8506 103.408C73.8329 99.8095 77.796 93.535 77.796 86.3781C77.796 74.758 67.3419 65.4173 54.7489 66.1558C43.9212 66.791 35.1301 75.0833 34.5274 85.2265C34.0779 92.8753 38.1593 99.6504 44.4978 103.439C46.6702 104.742 48.045 106.91 48.3843 109.269H0V31.9542C0 16.7516 13.1695 4.42456 29.4111 4.42456H112.011V50.016C114.641 49.7619 117.077 48.4512 118.519 46.3385C122.567 40.4131 129.805 36.5846 137.986 37.0059C148.822 37.5701 157.681 45.7988 158.36 55.9414C159.14 67.7206 149.17 77.5141 136.746 77.5141Z" fill="#EF8DA5"/>
<path d="M224.022 109.27H175.577C175.781 111.843 177.198 114.234 179.523 115.624C185.862 119.413 189.944 126.196 189.494 133.845C188.891 143.988 180.1 152.28 169.272 152.916C156.679 153.655 146.225 144.313 146.225 132.685C146.225 125.536 150.187 119.262 156.17 115.664C158.521 114.242 159.972 111.851 160.184 109.27H112.011V64.472C114.667 64.7343 117.093 66.0765 118.553 68.1973C122.406 73.797 129.101 77.5141 136.747 77.5141C149.17 77.5141 159.141 67.7206 158.36 55.9414C157.681 45.7982 148.823 37.5695 137.986 37.0059C129.806 36.5851 122.568 40.4136 118.52 46.3385C117.077 48.4512 114.642 49.7619 112.011 50.016V4.42456H194.61C210.852 4.42456 224.022 16.7516 224.022 31.9542V109.27H224.022Z" fill="#FFD064"/>
<path d="M194.61 4.42456H181.164C197.406 4.42456 210.575 16.7516 210.575 31.9542V109.27H224.022V31.9542C224.022 16.7516 210.852 4.42456 194.61 4.42456Z" fill="#FFC250"/>
<path d="M179.523 115.624C177.198 114.234 175.781 111.843 175.577 109.27H162.131C162.335 111.843 163.752 114.234 166.077 115.624C172.415 119.413 176.497 126.196 176.048 133.845C175.548 142.263 169.405 149.402 161.141 151.951C163.678 152.728 166.419 153.083 169.273 152.916C180.1 152.28 188.891 143.988 189.494 133.845C189.944 126.195 185.862 119.413 179.523 115.624Z" fill="#FFC250"/>
<path d="M297 168.73V246.046C297 261.248 283.83 273.575 267.589 273.575H184.989V228.516C182.359 228.77 179.923 230.081 178.481 232.194C174.433 238.119 167.195 241.947 159.014 241.518C148.178 240.954 139.319 232.726 138.64 222.591C137.86 210.803 147.831 201.018 160.253 201.018C167.899 201.018 174.594 204.727 178.447 210.327C179.907 212.456 182.334 213.79 184.99 214.052V168.731H233.163C232.951 171.312 231.5 173.703 229.149 175.125C223.167 178.723 219.204 184.998 219.204 192.146C219.204 203.775 229.658 213.115 242.251 212.377C253.079 211.742 261.87 203.449 262.473 193.306C262.922 185.657 258.841 178.874 252.502 175.085C250.177 173.695 248.759 171.304 248.556 168.731L297 168.73Z" fill="#006094" fill-opacity="0.9"/>
<path d="M215.703 175.124C209.72 178.722 205.757 184.997 205.757 192.146C205.757 203.774 216.211 213.115 228.804 212.376C230.645 212.268 232.425 211.934 234.118 211.412C225.459 208.76 219.203 201.139 219.203 192.146C219.203 184.997 223.166 178.722 229.149 175.124C231.499 173.702 232.95 171.311 233.162 168.73H219.716C219.504 171.311 218.053 173.702 215.703 175.124Z" fill="#005A8A" fill-opacity="0.7"/>
<path d="M283.554 168.73V246.046C283.554 261.248 270.384 273.575 254.143 273.575H267.589C283.831 273.575 297 261.248 297 246.046V168.73H283.554Z" fill="#005A8A" fill-opacity="0.7"/>
<path d="M65.6619 163.13C66.3406 173.265 75.1996 181.494 86.036 182.058C94.2163 182.487 101.455 178.658 105.502 172.733C106.945 170.62 109.38 169.31 112.011 169.056V214.115H29.4111C13.1695 214.115 0 201.788 0 186.585V109.27H48.3855C48.0461 106.911 46.6713 104.743 44.499 103.44C38.1604 99.6511 34.0784 92.8759 34.5286 85.2271C35.1313 75.0839 43.9224 66.7917 54.7501 66.1564C67.343 65.418 77.7972 74.7587 77.7972 86.3788C77.7972 93.5351 73.8347 99.8102 67.8517 103.408C65.6712 104.727 64.2622 106.887 63.906 109.27H112.011V154.592C109.355 154.33 106.929 152.996 105.469 150.867C101.616 145.267 94.9211 141.557 87.2751 141.557C74.8521 141.557 64.8812 151.343 65.6619 163.13Z" fill="#283183"/>
</svg>
