<svg width="321" height="278" viewBox="0 0 321 278" fill="none" xmlns="http://www.w3.org/2000/svg">
<path d="M161.039 210.943H101.886V232.98H161.039V210.943Z" fill="#445EA0"/>
<path d="M188.7 243.956C188.7 245.449 187.289 246.671 185.565 246.671H77.3573C75.6332 246.671 74.2225 245.449 74.2225 243.956V235.155C74.2225 233.662 75.6332 232.44 77.3573 232.44H185.566C187.29 232.44 188.7 233.662 188.7 235.155L188.7 243.956Z" fill="#293D7C"/>
<path d="M86.6625 243.956V235.155C86.6625 233.662 88.0732 232.44 89.7973 232.44H77.3573C75.6332 232.44 74.2225 233.662 74.2225 235.155V243.956C74.2225 245.449 75.6332 246.671 77.3573 246.671H89.7973C88.0732 246.671 86.6625 245.449 86.6625 243.956Z" fill="#1A2B63"/>
<path d="M220.015 179.662H6.23193V206.059C6.23193 209.046 9.05322 211.489 12.5015 211.489H220.014V179.662H220.015Z" fill="#293D7C"/>
<path d="M18.6726 206.059V179.662H6.23193V206.059C6.23193 209.046 9.05322 211.489 12.5015 211.489H24.9415C21.4939 211.489 18.6726 209.046 18.6726 206.059Z" fill="#1A2B63"/>
<path d="M250.67 57.1523H225.607V116.474C222.359 116.485 219.72 118.783 219.72 121.608V169.776H35.9915V57.1523H12.2526C8.94162 57.1523 6.23193 59.498 6.23193 62.3659V180.205H220.014V121.608C220.014 118.777 222.674 116.473 225.943 116.473H256.689V62.3654C256.69 59.498 253.981 57.1523 250.67 57.1523Z" fill="#445EA0"/>
<path d="M35.9915 67.5801H21.4086C19.6844 67.5801 18.2738 68.8018 18.2738 70.2949V167.061C18.2738 168.554 19.6844 169.776 21.4086 169.776H35.9921L35.9915 67.5801Z" fill="#293D7C"/>
<path d="M241.514 67.5801H225.607V116.488C225.719 116.483 225.83 116.473 225.943 116.473H244.649V70.2949C244.649 68.8018 243.238 67.5801 241.514 67.5801Z" fill="#293D7C"/>
<path d="M30.7138 167.061V70.2949C30.7138 68.8018 32.1244 67.5801 33.8486 67.5801H21.4086C19.6844 67.5801 18.2738 68.8018 18.2738 70.2949V167.061C18.2738 168.554 19.6844 169.776 21.4086 169.776H33.8486C32.1244 169.776 30.7138 168.554 30.7138 167.061Z" fill="#1A2B63"/>
<path d="M131.459 202.616C135.668 202.616 139.079 199.662 139.079 196.017C139.079 192.373 135.668 189.418 131.459 189.418C127.251 189.418 123.84 192.373 123.84 196.017C123.84 199.662 127.251 202.616 131.459 202.616Z" fill="#445EA0"/>
<path d="M104.825 35.5715C104.825 34.2429 106.081 33.1548 107.616 33.1548H179.595V2.85927C179.595 1.28629 178.11 0 176.294 0H38.9789C37.1632 0 35.678 1.28629 35.678 2.85927V169.776H104.825V35.5715Z" fill="#C3DDF4"/>
<path d="M51.4189 0H38.9789C37.1632 0 35.678 1.28629 35.678 2.85927V169.776H48.1186V2.85927C48.1186 1.28629 49.6039 0 51.4189 0Z" fill="#AEC1ED"/>
<path d="M220.015 121.608C220.015 118.783 222.662 116.485 225.921 116.474V35.0286C225.921 33.6999 224.664 32.6118 223.13 32.6118H106.99C105.454 32.6118 104.198 33.6999 104.198 35.0286V169.776H220.014V121.608H220.015V121.608Z" fill="white"/>
<path d="M119.43 32.6118H106.99C105.454 32.6118 104.198 33.6999 104.198 35.0286V169.776H116.638V35.0286C116.638 33.6994 117.895 32.6118 119.43 32.6118Z" fill="#D9EAFC"/>
<path d="M130.919 87.1133C129.563 87.1133 128.273 86.6067 127.381 85.7233L119.858 78.2808C118.147 76.5884 118.344 74.0158 120.299 72.534C122.252 71.0528 125.223 71.2238 126.934 72.9157L130.919 76.8582L137.255 70.5897C138.965 68.8972 141.935 68.7262 143.89 70.2079C145.844 71.6897 146.041 74.2623 144.33 75.9547L134.456 85.7233C133.564 86.6061 132.275 87.1133 130.919 87.1133Z" fill="#0F9390"/>
<path d="M206.723 76.8794H156.362C153.765 76.8794 151.66 75.0567 151.66 72.8071C151.66 70.5576 153.765 68.7349 156.362 68.7349H206.723C209.32 68.7349 211.425 70.5576 211.425 72.8071C211.425 75.0561 209.32 76.8794 206.723 76.8794Z" fill="#52BBEF"/>
<path d="M206.723 88.0439H156.362C153.765 88.0439 151.66 86.2212 151.66 83.9717C151.66 81.7222 153.765 79.8994 156.362 79.8994H206.723C209.32 79.8994 211.425 81.7222 211.425 83.9717C211.425 86.2212 209.32 88.0439 206.723 88.0439Z" fill="#52BBEF"/>
<path d="M130.919 120.606C129.563 120.606 128.273 120.1 127.381 119.217L119.858 111.775C118.147 110.083 118.344 107.51 120.299 106.029C122.253 104.547 125.223 104.719 126.934 106.41L130.919 110.352L137.255 104.084C138.965 102.392 141.935 102.221 143.89 103.702C145.844 105.184 146.041 107.757 144.33 109.449L134.456 119.217C133.564 120.1 132.275 120.606 130.919 120.606Z" fill="#0F9390"/>
<path d="M206.723 110.373H156.362C153.765 110.373 151.66 108.55 151.66 106.3C151.66 104.051 153.765 102.228 156.362 102.228H206.723C209.32 102.228 211.425 104.051 211.425 106.3C211.425 108.55 209.32 110.373 206.723 110.373Z" fill="#52BBEF"/>
<path d="M206.723 121.538H156.362C153.765 121.538 151.66 119.715 151.66 117.465C151.66 115.216 153.765 113.393 156.362 113.393H206.723C209.32 113.393 211.425 115.216 211.425 117.465C211.425 119.714 209.32 121.538 206.723 121.538Z" fill="#52BBEF"/>
<path d="M130.919 154.1C129.563 154.1 128.273 153.593 127.381 152.71L119.858 145.268C118.147 143.575 118.344 141.003 120.299 139.521C122.252 138.04 125.223 138.211 126.934 139.903L130.919 143.845L137.255 137.577C138.965 135.885 141.935 135.714 143.89 137.195C145.844 138.677 146.041 141.25 144.33 142.942L134.456 152.71C133.564 153.593 132.275 154.1 130.919 154.1Z" fill="#0F9390"/>
<path d="M206.724 143.866H156.363C153.766 143.866 151.66 142.043 151.66 139.794C151.66 137.544 153.766 135.721 156.363 135.721H206.724C209.321 135.721 211.426 137.544 211.426 139.794C211.426 142.043 209.321 143.866 206.724 143.866Z" fill="#52BBEF"/>
<path d="M188.211 155.031H156.362C153.765 155.031 151.659 153.208 151.659 150.958C151.659 148.709 153.765 146.886 156.362 146.886H188.211C190.808 146.886 192.914 148.709 192.914 150.958C192.914 153.208 190.808 155.031 188.211 155.031Z" fill="#52BBEF"/>
<path d="M90.6217 42.2756H53.9318C51.3349 42.2756 49.2296 40.4529 49.2296 38.2034C49.2296 35.9538 51.3349 34.1311 53.9318 34.1311H90.6223C93.2192 34.1311 95.3245 35.9538 95.3245 38.2034C95.3238 40.4529 93.2185 42.2756 90.6217 42.2756Z" fill="#445EA0"/>
<path d="M90.6217 53.5928H53.9318C51.3349 53.5928 49.2296 51.77 49.2296 49.5205C49.2296 47.271 51.3349 45.4482 53.9318 45.4482H90.6223C93.2192 45.4482 95.3245 47.271 95.3245 49.5205C95.3245 51.77 93.2185 53.5928 90.6217 53.5928Z" fill="#445EA0"/>
<path d="M90.6217 64.9099H53.9318C51.3349 64.9099 49.2296 63.0872 49.2296 60.8376C49.2296 58.5881 51.3349 56.7654 53.9318 56.7654H90.6223C93.2192 56.7654 95.3245 58.5881 95.3245 60.8376C95.3245 63.0872 93.2185 64.9099 90.6217 64.9099Z" fill="#445EA0"/>
<path d="M90.6217 86.3528H53.9318C51.3349 86.3528 49.2296 84.53 49.2296 82.2805C49.2296 80.031 51.3349 78.2083 53.9318 78.2083H90.6223C93.2192 78.2083 95.3245 80.031 95.3245 82.2805C95.3238 84.53 93.2185 86.3528 90.6217 86.3528Z" fill="#445EA0"/>
<path d="M90.6217 97.6704H53.9318C51.3349 97.6704 49.2296 95.8477 49.2296 93.5981C49.2296 91.3486 51.3349 89.5259 53.9318 89.5259H90.6223C93.2192 89.5259 95.3245 91.3486 95.3245 93.5981C95.3238 95.8471 93.2185 97.6704 90.6217 97.6704Z" fill="#445EA0"/>
<path d="M90.6217 108.988H53.9318C51.3349 108.988 49.2296 107.165 49.2296 104.916C49.2296 102.666 51.3349 100.844 53.9318 100.844H90.6223C93.2192 100.844 95.3245 102.666 95.3245 104.916C95.3238 107.165 93.2185 108.988 90.6217 108.988Z" fill="#445EA0"/>
<path d="M90.6217 130.431H53.9318C51.3349 130.431 49.2296 128.608 49.2296 126.359C49.2296 124.109 51.3349 122.286 53.9318 122.286H90.6223C93.2192 122.286 95.3245 124.109 95.3245 126.359C95.3238 128.608 93.2185 130.431 90.6217 130.431Z" fill="#445EA0"/>
<path d="M90.6217 141.748H53.9318C51.3349 141.748 49.2296 139.925 49.2296 137.675C49.2296 135.426 51.3349 133.603 53.9318 133.603H90.6223C93.2192 133.603 95.3245 135.426 95.3245 137.675C95.3238 139.925 93.2185 141.748 90.6217 141.748Z" fill="#445EA0"/>
<path d="M90.6217 153.065H53.9318C51.3349 153.065 49.2296 151.242 49.2296 148.992C49.2296 146.743 51.3349 144.92 53.9318 144.92H90.6223C93.2192 144.92 95.3245 146.743 95.3245 148.992C95.3238 151.242 93.2185 153.065 90.6217 153.065Z" fill="#445EA0"/>
<path d="M190.404 52.939H139.713C137.117 52.939 135.011 51.1162 135.011 48.8667C135.011 46.6172 137.117 44.7944 139.713 44.7944H190.404C193.001 44.7944 195.107 46.6172 195.107 48.8667C195.107 51.1162 193.001 52.939 190.404 52.939Z" fill="#445EA0"/>
<path d="M297.72 240.993C297.72 244.116 294.77 246.671 291.165 246.671H225.943C222.338 246.671 219.388 244.116 219.388 240.993V121.608C219.388 118.485 222.338 115.93 225.943 115.93H291.165C294.77 115.93 297.72 118.485 297.72 121.608V240.993Z" fill="#AEC1ED"/>
<path d="M231.828 240.993V121.608C231.828 118.485 234.778 115.93 238.383 115.93H225.943C222.338 115.93 219.388 118.485 219.388 121.608V240.993C219.388 244.116 222.338 246.671 225.943 246.671H238.383C234.778 246.671 231.828 244.116 231.828 240.993Z" fill="#85A0DD"/>
<path d="M245.443 224.328V230.727C245.443 232.22 246.853 233.442 248.577 233.442H268.53C270.254 233.442 271.664 232.22 271.664 230.727V224.328H245.443Z" fill="#445EA0"/>
<path d="M297.721 134.325H219.39V224.87H297.721V134.325Z" fill="#91E0E8"/>
<path d="M231.83 134.325H219.39V224.87H231.83V134.325Z" fill="#5DC1D8"/>
<path d="M269.698 129.079H247.409C244.813 129.079 242.707 127.257 242.707 125.007C242.707 122.758 244.813 120.935 247.409 120.935H269.698C272.294 120.935 274.4 122.758 274.4 125.007C274.4 127.257 272.294 129.079 269.698 129.079Z" fill="#445EA0"/>
<path d="M287.777 164.304C287.777 165.797 286.366 167.019 284.642 167.019H232.569C230.845 167.019 229.434 165.797 229.434 164.304V145.323C229.434 143.83 230.845 142.608 232.569 142.608H284.642C286.366 142.608 287.777 143.83 287.777 145.323V164.304Z" fill="#EEF6FF"/>
<path d="M272.608 180.448H234.246C231.649 180.448 229.544 178.625 229.544 176.376C229.544 174.126 231.649 172.303 234.246 172.303H272.608C275.205 172.303 277.31 174.126 277.31 176.376C277.31 178.625 275.205 180.448 272.608 180.448Z" fill="#EEF6FF"/>
<path d="M272.608 192.456H234.246C231.649 192.456 229.544 190.633 229.544 188.384C229.544 186.134 231.649 184.311 234.246 184.311H272.608C275.205 184.311 277.31 186.134 277.31 188.384C277.31 190.633 275.205 192.456 272.608 192.456Z" fill="#EEF6FF"/>
<path d="M272.608 204.463H234.246C231.649 204.463 229.544 202.64 229.544 200.391C229.544 198.142 231.649 196.318 234.246 196.318H272.608C275.205 196.318 277.31 198.142 277.31 200.391C277.31 202.64 275.205 204.463 272.608 204.463Z" fill="#EEF6FF"/>
<path d="M241.875 164.304V145.323C241.875 143.83 243.285 142.608 245.01 142.608H232.57C230.845 142.608 229.435 143.83 229.435 145.323V164.304C229.435 165.797 230.845 167.019 232.57 167.019H245.01C243.285 167.019 241.875 165.797 241.875 164.304Z" fill="#D9EAFC"/>
<path d="M241.984 176.376C241.984 174.126 244.089 172.303 246.686 172.303H234.246C231.649 172.303 229.544 174.126 229.544 176.376C229.544 178.625 231.649 180.448 234.246 180.448H246.686C244.089 180.448 241.984 178.625 241.984 176.376Z" fill="#D9EAFC"/>
<path d="M241.984 188.384C241.984 186.134 244.089 184.311 246.686 184.311H234.246C231.649 184.311 229.544 186.134 229.544 188.384C229.544 190.633 231.649 192.456 234.246 192.456H246.686C244.089 192.456 241.984 190.633 241.984 188.384Z" fill="#D9EAFC"/>
<path d="M241.984 200.391C241.984 198.142 244.089 196.318 246.686 196.318H234.246C231.649 196.318 229.544 198.142 229.544 200.391C229.544 202.64 231.649 204.463 234.246 204.463H246.686C244.089 204.463 241.984 202.64 241.984 200.391Z" fill="#D9EAFC"/>
<path d="M168.688 22.2617C168.688 23.7549 167.277 24.9766 165.553 24.9766H52.0747C50.3506 24.9766 48.9399 23.7549 48.9399 22.2617V14.6602C48.9399 13.167 50.3506 11.9453 52.0747 11.9453H165.553C167.277 11.9453 168.688 13.167 168.688 14.6602V22.2617Z" fill="white"/>
</svg>
