<svg width="297" height="278" viewBox="0 0 297 278" fill="none" xmlns="http://www.w3.org/2000/svg">
<path d="M144.01 210.66C144.01 201.369 138.255 192.921 129.255 189.001L116.347 183.378H55.6707L42.7622 189.001C33.7629 192.921 28.0079 201.37 28.0079 210.66V273.916C28.0079 276.172 29.9616 278 32.3713 278H139.646C142.055 278 144.009 276.171 144.009 273.916L144.01 210.66Z" fill="#006094" fill-opacity="0.9"/>
<path d="M144.01 210.66C144.01 201.369 138.255 192.921 129.255 189.001L116.347 183.378C104.749 178.151 98.9875 179.135 101.541 188.97L114.449 194.593C123.449 198.513 129.204 206.962 129.204 216.252V276.152C129.204 276.818 129.03 277.444 128.728 278H139.646C142.056 278 144.01 276.171 144.01 273.916V210.66Z" fill="#005A8A" fill-opacity="0.7"/>
<path d="M104.505 86.4412H67.5125V59.599C67.5125 50.0373 75.7936 42.2859 86.0088 42.2859C96.224 42.2859 104.505 50.0373 104.505 59.599V86.4412Z" fill="#323232"/>
<path d="M137.111 150.146H34.9068C28.7835 150.146 23.8192 145.499 23.8192 139.767V120.262C23.8192 88.1125 51.6624 62.0505 86.0088 62.0505C120.355 62.0505 148.198 88.1125 148.198 120.262V139.767C148.198 145.499 143.235 150.146 137.111 150.146Z" fill="#323232"/>
<path d="M86.0094 62.0505C83.1316 62.0505 80.3008 62.2373 77.5275 62.5919C107.86 66.4649 131.235 90.8062 131.235 120.262V139.767C131.235 145.499 126.271 150.146 120.148 150.146H137.112C143.235 150.146 148.2 145.499 148.2 139.767V120.262C148.198 88.1125 120.355 62.0505 86.0094 62.0505Z" fill="#020202"/>
<path d="M58.8263 185.74L47.5368 208.005C47.4434 208.189 47.4463 208.404 47.5444 208.586C47.643 208.768 47.8257 208.898 48.0397 208.936L63.7181 211.779C63.9675 211.824 64.1711 211.991 64.2523 212.216L73.6792 238.415C73.772 238.673 74.0232 238.851 74.3132 238.864C74.6033 238.878 74.8718 238.723 74.9907 238.476L86.0088 215.569V178.183L58.8263 185.74Z" fill="#00527F" fill-opacity="0.7"/>
<path d="M113.192 185.74L124.481 208.005C124.575 208.189 124.572 208.404 124.474 208.586C124.375 208.768 124.192 208.898 123.978 208.936L108.3 211.779C108.051 211.824 107.847 211.991 107.766 212.216L98.339 238.415C98.2461 238.673 97.995 238.851 97.7049 238.864C97.4155 238.878 97.1463 238.723 97.0274 238.476L86.0094 215.569V178.183L113.192 185.74Z" fill="#00527F" fill-opacity="0.7"/>
<path d="M81.2005 212.97C83.3376 216.435 88.6801 216.435 90.8171 212.97L107.548 185.845H64.4694L81.2005 212.97Z" fill="#FFCBBE"/>
<path d="M41.272 117.154C40.4553 117.07 39.7383 117.662 39.7383 118.431V133.165V149.934V150.691C39.7383 174.611 60.4546 194.002 86.0088 194.002C111.564 194.002 132.279 174.611 132.279 150.691V118.117C132.279 117.471 131.767 116.929 131.083 116.841C119.489 115.342 109.391 111.93 101.798 105.321C101.299 104.887 100.548 104.847 100.006 105.233C84.3915 116.335 64.3817 119.532 41.272 117.154Z" fill="#FFDDCE"/>
<path d="M131.08 116.84C120.308 115.447 109.76 112.251 101.799 105.321C101.3 104.887 100.55 104.847 100.007 105.233C84.3915 116.335 64.3817 119.532 41.272 117.154C40.4553 117.07 39.7383 117.662 39.7383 118.431V125.174C39.7383 124.405 40.4553 123.813 41.272 123.897C64.3812 126.276 84.391 124.757 100.006 113.655C100.54 113.275 101.287 113.296 101.779 113.725C105.429 116.91 109.661 118.432 114.359 119.795C117.425 120.684 119.527 123.324 119.527 126.329V150.691C119.527 172.584 102.169 190.673 79.6326 193.582C81.718 193.851 83.8439 194.001 86.0088 194.001C111.564 194.001 132.279 174.61 132.279 150.691C132.279 148.569 132.279 116.162 132.279 118.116C132.28 117.47 131.765 116.929 131.08 116.84Z" fill="#FFCBBE"/>
<path d="M130.009 255.602H109.179C106.704 255.602 104.699 253.724 104.699 251.408C104.699 249.091 106.705 247.214 109.179 247.214H130.009C132.484 247.214 134.489 249.092 134.489 251.408C134.489 253.724 132.484 255.602 130.009 255.602Z" fill="#00527F" fill-opacity="0.7"/>
<path d="M242.039 60.51L218.848 68.8239L195.656 60.51L164.732 125.276C163.968 126.878 165.322 128.659 167.188 128.507L187.169 126.882C188.137 126.803 189.063 127.266 189.533 128.062L199.228 144.506C200.168 146.1 202.62 146.088 203.543 144.485L216.332 122.267C217.411 120.392 220.284 120.392 221.363 122.267L234.152 144.485C235.075 146.088 237.527 146.1 238.467 144.506L248.162 128.062C248.631 127.266 249.558 126.803 250.526 126.882L270.507 128.507C272.373 128.658 273.727 126.878 272.963 125.276L242.039 60.51Z" fill="#4651AF"/>
<path d="M218.848 109.142C234.029 109.142 247.976 104.204 258.963 95.9534L242.039 60.5095L218.848 68.8229L195.656 60.5095L178.733 95.9534C189.72 104.204 203.667 109.142 218.848 109.142Z" fill="#283183"/>
<path d="M218.848 98.1763C247.811 98.1763 271.291 76.1988 271.291 49.0882C271.291 21.9775 247.811 0 218.848 0C189.884 0 166.405 21.9775 166.405 49.0882C166.405 76.1988 189.884 98.1763 218.848 98.1763Z" fill="#E7A52E"/>
<path d="M218.848 98.1763C247.811 98.1763 271.291 76.1988 271.291 49.0882C271.291 21.9775 247.811 0 218.848 0C189.884 0 166.405 21.9775 166.405 49.0882C166.405 76.1988 189.884 98.1763 218.848 98.1763Z" fill="#E7A52E"/>
<path d="M218.848 0C216.366 0 213.925 0.165063 211.534 0.47727C237.035 3.80838 256.664 24.3011 256.664 49.0882C256.664 73.8752 237.036 94.368 211.534 97.6991C213.925 98.0113 216.366 98.1769 218.848 98.1769C247.812 98.1769 271.291 76.1992 271.291 49.0887C271.292 21.9777 247.812 0 218.848 0Z" fill="#E28424"/>
<path d="M221.06 25.4744L228.741 37.5842C229.101 38.1533 229.697 38.5583 230.387 38.7038L245.065 41.7993C246.969 42.2011 247.72 44.3643 246.432 45.7375L236.501 56.3172C236.034 56.8146 235.807 57.4699 235.873 58.1291L237.263 72.1518C237.443 73.9718 235.478 75.3086 233.684 74.5859L219.866 69.0145C219.216 68.7528 218.48 68.7528 217.83 69.0145L204.012 74.5859C202.219 75.3092 200.253 73.9718 200.433 72.1518L201.824 58.1291C201.889 57.4699 201.662 56.8146 201.195 56.3172L191.265 45.7375C189.976 44.3643 190.727 42.2011 192.632 41.7993L207.31 38.7038C207.999 38.5583 208.595 38.1533 208.956 37.5842L216.637 25.4744C217.633 23.9031 220.063 23.9031 221.06 25.4744Z" fill="#FFD064"/>
<path d="M219.866 69.014L233.684 74.5854C235.477 75.3081 237.443 73.9708 237.263 72.1513L235.873 58.1286C235.807 57.4694 236.034 56.8146 236.501 56.3167L246.432 45.7369C247.721 44.3638 246.97 42.2006 245.065 41.7988L230.387 38.7033C229.698 38.5578 229.102 38.1528 228.741 37.5837L221.06 25.4739C220.562 24.6882 219.705 24.2957 218.848 24.2957C223.147 42.3532 223.35 57.3456 218.848 68.8175C219.194 68.8175 219.541 68.8832 219.866 69.014Z" fill="#FFC250"/>
</svg>
