<svg width="274" height="259" viewBox="0 0 274 259" fill="none" xmlns="http://www.w3.org/2000/svg">
<path d="M110.205 168.054V256.52C103.264 255.22 96.5205 253.43 90.0066 251.177C86.2312 249.877 82.5353 248.422 78.923 246.822C77.6938 246.276 76.4688 245.711 75.2543 245.124C72.1353 243.635 69.0874 242.032 66.1127 240.325C51.2099 231.794 38.1696 220.652 27.6902 207.57C21.4 199.716 16.038 191.163 11.7546 182.05V168.054C11.7546 151.817 23.4194 138.153 39.2608 134.152C39.842 134.003 40.4231 133.865 41.0168 133.75C42.5867 133.422 44.2027 133.199 45.8479 133.073C46.8492 133 47.861 132.956 48.8832 132.956H73.0677C75.7685 132.956 78.4025 133.227 80.9424 133.75C81.0866 133.776 81.233 133.808 81.3772 133.839C81.8037 133.93 82.2343 134.029 82.6524 134.136C82.6649 134.142 82.6754 134.142 82.6858 134.146C86.8688 135.203 90.755 136.932 94.2168 139.204C103.879 145.541 110.205 156.097 110.205 168.054Z" fill="#FFC250"/>
<path d="M110.205 168.054V256.52C103.264 255.22 96.5205 253.43 90.0066 251.177C86.2313 249.877 82.5353 248.422 78.923 246.822C77.6938 246.276 76.4688 245.711 75.2543 245.124C72.1353 243.635 69.0874 242.032 66.1127 240.325C51.2099 231.794 38.1696 220.652 27.6902 207.57V168.054C27.6902 151.817 39.3549 138.153 55.1964 134.152C55.7796 134.003 56.3608 133.865 56.9524 133.75C58.5244 133.422 60.1403 133.199 61.7834 133.073C62.7847 133 63.7965 132.956 64.8208 132.956H73.0677C75.7685 132.956 78.4025 133.227 80.9424 133.75C81.0867 133.776 81.233 133.808 81.3772 133.839C81.8037 133.93 82.2343 134.029 82.6524 134.136C82.6649 134.142 82.6754 134.142 82.6859 134.146C86.8689 135.203 90.755 136.932 94.2168 139.204C103.879 145.541 110.205 156.097 110.205 168.054Z" fill="#FFD064"/>
<path d="M82.7777 133.749L82.6899 134.146L71.5813 182.983C70.5151 187.676 66.1461 191.079 61.0705 191.083C61.0391 191.083 61.0098 191.083 60.9806 191.083C60.9471 191.083 60.9158 191.083 60.8823 191.083C55.8046 191.079 51.4377 187.676 50.3715 182.983L39.2628 134.15L39.175 133.749H82.7777Z" fill="#F2F0EC"/>
<path d="M60.9764 147.326L44.259 156.107L39.175 133.748L49.5625 127.967" fill="#D8D5D0"/>
<path d="M60.9764 147.326L77.6938 156.107L82.7778 133.748L72.3903 127.967" fill="#D8D5D0"/>
<path d="M11.0648 124.497V71.5634C11.0648 66.1847 12.0139 60.9147 13.8869 55.8995C20.8962 37.0484 39.8211 24.3782 60.9786 24.3782C63.6 24.3782 66.2152 24.5698 68.7572 24.9492C80.3801 26.6664 91.0456 32.2743 98.7782 40.7415C106.592 49.2997 110.897 60.2448 110.897 71.5634V124.497" fill="#CC7A3B"/>
<path d="M31.5973 73.6303C31.5973 92.353 43.1972 114.014 49.5668 124.497H11.0627V71.5633C11.0627 66.1866 12.0139 60.9166 13.8849 55.8995C20.8523 37.157 39.6037 24.5244 60.6149 24.3821C45.2688 24.7437 31.5973 48.0172 31.5973 73.6303Z" fill="#A35418"/>
<path d="M74.2278 119.436V134.806C74.2278 140.431 70.304 145.188 64.8981 146.767C63.6606 147.13 62.3415 147.326 60.9785 147.326C53.6619 147.326 47.7334 141.722 47.7334 134.806V119.436H74.2278Z" fill="#EAB599"/>
<path d="M74.2278 133.832V134.806C74.2278 140.431 70.304 145.188 64.8981 146.767C60.0211 145.35 56.3544 141.34 55.6771 136.436C56.5614 136.487 57.4519 136.513 58.3445 136.513C60.851 136.513 63.3094 136.325 65.7009 135.954C68.6505 135.505 71.5019 134.788 74.2278 133.832Z" fill="#F6CAAE"/>
<path d="M92.6134 79.3804V119.41C86.0682 125.317 77.6751 129.407 68.337 130.83C68.2638 130.842 68.1844 130.854 68.1112 130.865C65.7908 131.215 63.4098 131.389 60.9786 131.389C35.6653 131.389 15.1433 111.991 15.1433 88.063V71.5633C15.1433 69.4509 15.3022 67.3722 15.6116 65.3408C26.5175 72.7548 42.1541 72.0217 52.1172 63.1218C55.4159 60.1755 57.7091 56.6681 59.0052 52.9473C59.7264 59.4622 62.8788 65.8032 68.4666 70.7966C75.1184 76.7325 83.9067 79.5958 92.6134 79.3804Z" fill="#EAB599"/>
<path d="M92.6134 79.3804V119.41C86.0682 125.317 77.675 129.407 68.3369 130.83C68.2638 130.842 68.1843 130.854 68.1112 130.865C46.1865 127.627 29.4169 109.692 29.4169 88.063V71.5633C29.4169 71.1246 29.4252 70.6879 29.442 70.2532C37.5237 71.0357 45.9189 68.6605 52.1171 63.1198C55.4158 60.1755 57.7091 56.6661 59.0052 52.9473C59.7264 59.4622 62.8788 65.8032 68.4666 70.7966C75.1184 76.7325 83.9066 79.5958 92.6134 79.3804Z" fill="#F6CAAE"/>
<path d="M261.704 166.987V183.198C248.206 211.165 224.49 233.792 195.071 246.828C189.742 249.185 184.223 251.23 178.542 252.932C172.151 254.862 165.558 256.346 158.791 257.366C158.764 257.372 158.73 257.378 158.701 257.378V166.987C158.701 147.721 174.398 131.915 194.373 130.393C195.424 130.308 196.48 130.273 197.548 130.273H222.847C225.838 130.273 228.75 130.583 231.547 131.192C248.814 134.922 261.704 149.539 261.704 166.987Z" fill="#BFD5DE"/>
<path d="M261.704 166.987V183.198C248.206 211.165 224.49 233.792 195.071 246.828C189.742 249.185 184.223 251.23 178.542 252.932V166.987C178.542 146.711 195.938 130.273 217.395 130.273H222.851C244.313 130.273 261.704 146.711 261.704 166.987Z" fill="#DDE8ED"/>
<path d="M172.178 89.7722C172.178 95.8386 167.491 100.868 161.354 101.8C160.683 101.903 159.993 101.956 159.288 101.956C152.168 101.956 146.399 96.5025 146.399 89.7722C146.399 83.0419 152.168 77.5881 159.288 77.5881C159.993 77.5881 160.683 77.6415 161.354 77.7442C167.491 78.6789 172.178 83.7078 172.178 89.7722Z" fill="#D3A489"/>
<path d="M220.631 143.518L210.201 159.33L199.772 143.518" fill="#4651AF"/>
<path d="M224.233 203.996L210.201 220.733L196.168 203.996L210.204 155.216L224.233 203.996Z" fill="#4651AF"/>
<path d="M172.178 89.7721C172.178 95.8385 167.491 100.867 161.354 101.8C160.24 97.9686 159.644 93.9356 159.644 89.7721C159.644 85.6106 160.24 81.5776 161.354 77.7441C167.491 78.6788 172.178 83.7077 172.178 89.7721Z" fill="#BF8E75"/>
<path d="M163.896 89.7723C163.896 92.1772 161.832 94.1275 159.288 94.1275C156.744 94.1275 154.683 92.1772 154.683 89.7723C154.683 87.3675 156.744 85.4192 159.288 85.4192C161.832 85.4192 163.896 87.3675 163.896 89.7723Z" fill="#BF8E75"/>
<path d="M210.197 145.302L192.709 154.491L187.388 131.097L198.254 125.046" fill="#BFD5DE"/>
<path d="M210.197 145.302L227.688 154.491L233.008 131.097L222.14 125.046" fill="#BFD5DE"/>
<path d="M258.158 83.2969C258.158 105.855 240.724 124.57 217.896 128.044C215.394 128.433 212.823 128.629 210.199 128.629C183.711 128.629 162.242 108.335 162.242 83.2969C162.242 71.4507 166.595 53.6666 174.465 45.5907C183.228 36.5978 196.243 37.9632 210.199 37.9632C212.823 37.9632 215.392 38.1608 217.896 38.5501C240.724 42.024 258.158 60.7368 258.158 83.2969Z" fill="#BF8E75"/>
<path d="M224.061 116.125V132.203C224.061 138.09 219.955 143.065 214.299 144.717C213.005 145.097 211.625 145.302 210.197 145.302C202.544 145.302 196.34 139.438 196.34 132.203V116.125H224.061Z" fill="#BF8E75"/>
<path d="M224.061 131.184V132.203C224.061 138.09 219.955 143.065 214.299 144.717C209.196 143.235 205.36 139.04 204.651 133.909C205.577 133.962 206.508 133.99 207.444 133.99C210.066 133.99 212.637 133.792 215.141 133.405C218.227 132.934 221.208 132.185 224.061 131.184Z" fill="#D3A489"/>
<path d="M258.159 83.2969C258.159 105.855 240.724 124.57 217.896 128.044C195.071 124.57 177.636 105.855 177.636 83.2969C177.636 69.4055 184.246 56.9724 194.659 48.6554C201.152 43.4664 209.127 39.8839 217.896 38.5481C239.177 41.7868 255.778 58.2766 257.922 78.7758C258.079 80.2637 258.159 81.7734 258.159 83.2969Z" fill="#D3A489"/>
<path d="M225.991 165.783H246.897V171.832H225.991V165.783Z" fill="#BFD5DE"/>
<path d="M207.394 25.0145C221.923 25.9946 233.587 37.0879 234.325 51.0524L234.463 53.6745H242.821L247.322 81.9671L258.223 78.7778L256.76 51.0544C255.987 36.3844 243.151 24.888 227.619 24.9433L207.394 25.0145Z" fill="#2A2F4F"/>
<path d="M255.836 14.0713C267.405 25.0065 267.405 42.7373 255.836 53.6726C244.268 64.6078 225.51 64.6078 213.941 53.6726L255.836 14.0713Z" fill="#3D4159"/>
<path d="M213.941 53.6724H177.584L173.081 81.9669L162.18 78.7776L163.641 51.0522C164.414 36.3862 177.25 24.8858 192.784 24.9411L245.294 25.1288L252.236 36.9395" fill="#3D4159"/>
<path d="M213.007 25.0145C198.478 25.9946 186.813 37.0879 186.076 51.0524L185.938 53.6745H177.582L173.079 81.9671L162.177 78.7778L163.641 51.0544C164.414 36.3844 177.25 24.888 192.782 24.9433L213.007 25.0145Z" fill="#2A2F4F"/>
<path d="M195.071 237.118V246.828C177.44 254.635 157.762 259 137 259C116.238 259 96.5539 254.635 78.923 246.822V237.118C78.923 217.956 92.6844 201.84 111.377 197.115C112.061 196.941 112.749 196.781 113.447 196.639C115.303 196.258 117.21 195.995 119.145 195.847C120.331 195.756 121.522 195.708 122.731 195.708H151.259C154.451 195.708 157.555 196.026 160.553 196.639C160.727 196.671 160.9 196.708 161.067 196.746C161.571 196.856 162.073 196.973 162.57 197.099C162.589 197.103 162.593 197.103 162.61 197.109C167.544 198.356 172.134 200.397 176.211 203.077C187.612 210.552 195.071 223.009 195.071 237.118Z" fill="#3D4159"/>
<path d="M162.717 196.639L162.61 197.109L148.638 258.536C147.914 258.593 147.189 258.646 146.461 258.694C145.437 258.757 144.409 258.814 143.374 258.858C141.26 258.952 139.136 259 137 259C134.807 259 132.633 258.952 130.469 258.852C129.491 258.81 128.511 258.757 127.532 258.688C126.801 258.64 126.073 258.593 125.346 258.536L111.377 197.115L111.273 196.639H162.717Z" fill="#0D659C"/>
<path d="M148.757 210.651L136.996 228.478L125.237 210.651" fill="#3D4159"/>
<path d="M146.461 258.694C145.437 258.757 144.409 258.814 143.374 258.858C141.26 258.953 139.136 259 137 259C134.807 259 132.633 258.953 130.469 258.852C129.491 258.81 128.511 258.757 127.532 258.688L137 223.839L146.461 258.694Z" fill="#3D4159"/>
<path d="M136.994 212.661L117.27 223.021L111.271 196.643L123.525 189.82" fill="#045D90"/>
<path d="M136.994 212.661L156.715 223.021L162.715 196.643L150.46 189.82" fill="#045D90"/>
<path d="M163.461 232.239H169.718L158.791 257.366C153.736 258.132 148.592 258.634 143.374 258.858L162.57 197.099L162.717 196.639L176.211 200.804L163.461 232.239Z" fill="#2A2F4F"/>
<path d="M130.469 258.852C125.245 258.624 120.097 258.113 115.042 257.34L104.126 232.239H110.382L97.6284 200.804L111.126 196.639L111.273 197.099L130.469 258.852Z" fill="#2A2F4F"/>
<path d="M152.626 179.758V197.888C152.626 204.527 147.996 210.137 141.618 212C140.157 212.429 138.601 212.66 136.992 212.66C128.36 212.66 121.365 206.047 121.365 197.888V179.758H152.626Z" fill="#EAB599"/>
<path d="M152.626 196.74V197.89C152.626 204.527 147.996 210.137 141.618 212.002C135.863 210.329 131.536 205.6 130.737 199.812C131.782 199.874 132.832 199.903 133.885 199.903C136.843 199.903 139.743 199.682 142.565 199.245C146.045 198.716 149.407 197.868 152.626 196.74Z" fill="#F6CAAE"/>
<path d="M191.076 123.275V142.741C191.076 168.18 171.415 189.282 145.673 193.199C145.588 193.213 145.496 193.226 145.41 193.24C142.671 193.655 139.862 193.859 136.994 193.859C107.127 193.859 82.9178 170.972 82.9178 142.743V123.275C82.9178 117.332 83.9902 111.619 85.972 106.311C93.368 86.4169 113.422 72.1541 136.994 72.1541H136.998C139.862 72.1541 142.676 72.3635 145.418 72.7725C171.286 76.5922 191.076 97.7513 191.076 123.275Z" fill="#EAB599"/>
<path d="M191.074 123.276V142.741C191.074 168.179 171.415 189.282 145.673 193.199C145.585 193.213 145.496 193.227 145.408 193.24C119.543 189.419 99.7565 168.262 99.7565 142.741V123.276C99.7565 97.7515 119.547 76.5923 145.418 72.7727C171.286 76.5923 191.074 97.7515 191.074 123.276Z" fill="#F6CAAE"/>
<path d="M191.076 105.61V125.55H181.01V109.934L108.355 97.1725L92.9813 94.4713V125.55H82.9158V105.608C82.9158 82.876 102.407 64.4517 126.452 64.4517H147.54C148.113 64.4517 148.686 64.4615 149.258 64.4892C172.502 65.3349 191.076 83.4194 191.076 105.61Z" fill="#2A2F4F"/>
<path d="M191.076 105.61V125.55H181.01V109.934L108.354 97.1725C112.358 78.9971 129.04 65.2263 149.258 64.4893C172.502 65.335 191.076 83.4195 191.076 105.61Z" fill="#3D4159"/>
</svg>
